<mxfile host="app.diagrams.net" agent="Mozilla/5.0 (Windows NT 10.0; Win64; x64) AppleWebKit/537.36 (KHTML, like Gecko) Chrome/131.0.0.0 Safari/537.36" version="24.9.1">
  <diagram name="第 1 页" id="tqdqbqpkBZ1-99GNEi0h">
    <mxGraphModel dx="499" dy="422" grid="0" gridSize="10" guides="1" tooltips="1" connect="1" arrows="1" fold="1" page="0" pageScale="1" pageWidth="827" pageHeight="1169" math="0" shadow="0">
      <root>
        <mxCell id="0" />
        <mxCell id="1" parent="0" />
        <mxCell id="66kLVEGjI1j4hBiu9Z6x-17" value="" style="group" vertex="1" connectable="0" parent="1">
          <mxGeometry x="68" y="107" width="113" height="183" as="geometry" />
        </mxCell>
        <mxCell id="66kLVEGjI1j4hBiu9Z6x-16" value="" style="rounded=1;whiteSpace=wrap;html=1;fillColor=#f5f5f5;fontColor=#333333;strokeColor=#666666;strokeWidth=4;" vertex="1" parent="66kLVEGjI1j4hBiu9Z6x-17">
          <mxGeometry x="-23" y="-21" width="136" height="204" as="geometry" />
        </mxCell>
        <mxCell id="66kLVEGjI1j4hBiu9Z6x-1" value="" style="verticalLabelPosition=bottom;shadow=0;dashed=0;align=center;html=1;verticalAlign=top;shape=mxgraph.electrical.logic_gates.logic_gate;operation=xor;rotation=-90;" vertex="1" parent="66kLVEGjI1j4hBiu9Z6x-17">
          <mxGeometry x="44.18045112781955" y="4.53955746577523" width="24.54469507101086" height="13.618672397325692" as="geometry" />
        </mxCell>
        <mxCell id="66kLVEGjI1j4hBiu9Z6x-2" value="" style="verticalLabelPosition=bottom;shadow=0;dashed=0;align=center;html=1;verticalAlign=top;shape=mxgraph.electrical.logic_gates.logic_gate;operation=xor;rotation=-90;" vertex="1" parent="66kLVEGjI1j4hBiu9Z6x-17">
          <mxGeometry x="19.635756056808688" y="49.935132123527545" width="24.54469507101086" height="13.618672397325692" as="geometry" />
        </mxCell>
        <mxCell id="66kLVEGjI1j4hBiu9Z6x-3" value="" style="verticalLabelPosition=bottom;shadow=0;dashed=0;align=center;html=1;verticalAlign=top;shape=mxgraph.electrical.logic_gates.logic_gate;operation=xor;rotation=-90;" vertex="1" parent="66kLVEGjI1j4hBiu9Z6x-17">
          <mxGeometry x="68.7251461988304" y="49.935132123527545" width="24.54469507101086" height="13.618672397325692" as="geometry" />
        </mxCell>
        <mxCell id="66kLVEGjI1j4hBiu9Z6x-4" value="" style="verticalLabelPosition=bottom;shadow=0;dashed=0;align=center;html=1;verticalAlign=top;shape=mxgraph.electrical.logic_gates.logic_gate;operation=xor;rotation=-90;" vertex="1" parent="66kLVEGjI1j4hBiu9Z6x-17">
          <mxGeometry x="-4.908939014202172" y="95.33070678127984" width="24.54469507101086" height="13.618672397325692" as="geometry" />
        </mxCell>
        <mxCell id="66kLVEGjI1j4hBiu9Z6x-5" value="" style="verticalLabelPosition=bottom;shadow=0;dashed=0;align=center;html=1;verticalAlign=top;shape=mxgraph.electrical.logic_gates.logic_gate;operation=xor;rotation=-90;" vertex="1" parent="66kLVEGjI1j4hBiu9Z6x-17">
          <mxGeometry x="45.6531328320802" y="95.33070678127984" width="24.54469507101086" height="13.618672397325692" as="geometry" />
        </mxCell>
        <mxCell id="66kLVEGjI1j4hBiu9Z6x-6" value="" style="verticalLabelPosition=bottom;shadow=0;dashed=0;align=center;html=1;verticalAlign=top;shape=mxgraph.electrical.logic_gates.logic_gate;operation=xor;rotation=-90;" vertex="1" parent="66kLVEGjI1j4hBiu9Z6x-17">
          <mxGeometry x="19.635756056808688" y="140.72628143903216" width="24.053801169590642" height="13.164716650748169" as="geometry" />
        </mxCell>
        <mxCell id="66kLVEGjI1j4hBiu9Z6x-7" value="" style="verticalLabelPosition=bottom;shadow=0;dashed=0;align=center;html=1;verticalAlign=top;shape=mxgraph.electrical.logic_gates.logic_gate;operation=xor;rotation=-90;" vertex="1" parent="66kLVEGjI1j4hBiu9Z6x-17">
          <mxGeometry x="68.7251461988304" y="140.72628143903216" width="24.053801169590642" height="13.164716650748169" as="geometry" />
        </mxCell>
        <mxCell id="66kLVEGjI1j4hBiu9Z6x-8" style="edgeStyle=orthogonalEdgeStyle;rounded=0;orthogonalLoop=1;jettySize=auto;html=1;exitX=1;exitY=0.5;exitDx=0;exitDy=0;exitPerimeter=0;entryX=0;entryY=0.25;entryDx=0;entryDy=0;entryPerimeter=0;fontSize=12;startSize=8;endSize=8;endArrow=none;endFill=0;" edge="1" parent="66kLVEGjI1j4hBiu9Z6x-17" source="66kLVEGjI1j4hBiu9Z6x-2" target="66kLVEGjI1j4hBiu9Z6x-1">
          <mxGeometry relative="1" as="geometry" />
        </mxCell>
        <mxCell id="66kLVEGjI1j4hBiu9Z6x-9" style="edgeStyle=orthogonalEdgeStyle;rounded=0;orthogonalLoop=1;jettySize=auto;html=1;exitX=1;exitY=0.5;exitDx=0;exitDy=0;exitPerimeter=0;entryX=0;entryY=0.75;entryDx=0;entryDy=0;entryPerimeter=0;fontSize=12;startSize=8;endSize=8;endArrow=none;endFill=0;" edge="1" parent="66kLVEGjI1j4hBiu9Z6x-17" source="66kLVEGjI1j4hBiu9Z6x-3" target="66kLVEGjI1j4hBiu9Z6x-1">
          <mxGeometry relative="1" as="geometry" />
        </mxCell>
        <mxCell id="66kLVEGjI1j4hBiu9Z6x-10" style="edgeStyle=orthogonalEdgeStyle;rounded=0;orthogonalLoop=1;jettySize=auto;html=1;exitX=1;exitY=0.5;exitDx=0;exitDy=0;exitPerimeter=0;entryX=0;entryY=0.25;entryDx=0;entryDy=0;entryPerimeter=0;fontSize=12;startSize=8;endSize=8;endArrow=none;endFill=0;" edge="1" parent="66kLVEGjI1j4hBiu9Z6x-17" source="66kLVEGjI1j4hBiu9Z6x-4" target="66kLVEGjI1j4hBiu9Z6x-2">
          <mxGeometry relative="1" as="geometry" />
        </mxCell>
        <mxCell id="66kLVEGjI1j4hBiu9Z6x-12" style="edgeStyle=orthogonalEdgeStyle;rounded=0;orthogonalLoop=1;jettySize=auto;html=1;exitX=1;exitY=0.5;exitDx=0;exitDy=0;exitPerimeter=0;entryX=0;entryY=0.25;entryDx=0;entryDy=0;entryPerimeter=0;fontSize=12;startSize=8;endSize=8;endArrow=none;endFill=0;" edge="1" parent="66kLVEGjI1j4hBiu9Z6x-17" source="66kLVEGjI1j4hBiu9Z6x-6" target="66kLVEGjI1j4hBiu9Z6x-5">
          <mxGeometry relative="1" as="geometry" />
        </mxCell>
        <mxCell id="66kLVEGjI1j4hBiu9Z6x-13" style="edgeStyle=orthogonalEdgeStyle;rounded=0;orthogonalLoop=1;jettySize=auto;html=1;exitX=1;exitY=0.5;exitDx=0;exitDy=0;exitPerimeter=0;entryX=0;entryY=0.75;entryDx=0;entryDy=0;entryPerimeter=0;fontSize=12;startSize=8;endSize=8;endArrow=none;endFill=0;" edge="1" parent="66kLVEGjI1j4hBiu9Z6x-17" source="66kLVEGjI1j4hBiu9Z6x-7" target="66kLVEGjI1j4hBiu9Z6x-5">
          <mxGeometry relative="1" as="geometry" />
        </mxCell>
        <mxCell id="66kLVEGjI1j4hBiu9Z6x-15" style="edgeStyle=orthogonalEdgeStyle;rounded=0;orthogonalLoop=1;jettySize=auto;html=1;exitX=1;exitY=0.5;exitDx=0;exitDy=0;exitPerimeter=0;entryX=0;entryY=0.75;entryDx=0;entryDy=0;entryPerimeter=0;fontSize=12;startSize=8;endSize=8;endArrow=none;endFill=0;" edge="1" parent="66kLVEGjI1j4hBiu9Z6x-17" source="66kLVEGjI1j4hBiu9Z6x-5" target="66kLVEGjI1j4hBiu9Z6x-2">
          <mxGeometry relative="1" as="geometry" />
        </mxCell>
        <mxCell id="66kLVEGjI1j4hBiu9Z6x-19" style="edgeStyle=none;curved=1;rounded=0;orthogonalLoop=1;jettySize=auto;html=1;entryX=1;entryY=0.5;entryDx=0;entryDy=0;fontSize=12;startSize=8;endSize=8;" edge="1" parent="66kLVEGjI1j4hBiu9Z6x-17" source="66kLVEGjI1j4hBiu9Z6x-16" target="66kLVEGjI1j4hBiu9Z6x-16">
          <mxGeometry relative="1" as="geometry" />
        </mxCell>
        <mxCell id="66kLVEGjI1j4hBiu9Z6x-18" value="" style="endArrow=classic;html=1;rounded=0;fontSize=12;startSize=8;endSize=8;curved=1;exitX=1;exitY=0.5;exitDx=0;exitDy=0;entryX=0;entryY=0.5;entryDx=0;entryDy=0;" edge="1" parent="1" source="66kLVEGjI1j4hBiu9Z6x-16" target="66kLVEGjI1j4hBiu9Z6x-20">
          <mxGeometry width="50" height="50" relative="1" as="geometry">
            <mxPoint x="208" y="193" as="sourcePoint" />
            <mxPoint x="256" y="188" as="targetPoint" />
          </mxGeometry>
        </mxCell>
        <mxCell id="66kLVEGjI1j4hBiu9Z6x-23" style="edgeStyle=none;curved=1;rounded=0;orthogonalLoop=1;jettySize=auto;html=1;exitX=1;exitY=0.5;exitDx=0;exitDy=0;entryX=0;entryY=0.5;entryDx=0;entryDy=0;fontSize=12;startSize=8;endSize=8;" edge="1" parent="1" source="66kLVEGjI1j4hBiu9Z6x-20" target="66kLVEGjI1j4hBiu9Z6x-22">
          <mxGeometry relative="1" as="geometry" />
        </mxCell>
        <mxCell id="66kLVEGjI1j4hBiu9Z6x-20" value="&lt;font style=&quot;font-size: 20px;&quot;&gt;CNF&lt;/font&gt;" style="rounded=1;whiteSpace=wrap;html=1;fillColor=#fff2cc;strokeColor=#d6b656;fontFamily=Times New Roman;" vertex="1" parent="1">
          <mxGeometry x="262" y="168.5" width="63" height="39" as="geometry" />
        </mxCell>
        <mxCell id="66kLVEGjI1j4hBiu9Z6x-21" value="转换" style="text;html=1;align=center;verticalAlign=middle;resizable=0;points=[];autosize=1;strokeColor=none;fillColor=none;fontSize=16;fontFamily=宋体;" vertex="1" parent="1">
          <mxGeometry x="195.5" y="157.5" width="50" height="31" as="geometry" />
        </mxCell>
        <mxCell id="66kLVEGjI1j4hBiu9Z6x-22" value="&lt;font face=&quot;Times New Roman&quot; style=&quot;font-size: 20px;&quot;&gt;SAT&lt;/font&gt;&lt;font face=&quot;宋体&quot; style=&quot;font-size: 20px;&quot;&gt;求解器&lt;/font&gt;" style="rounded=1;whiteSpace=wrap;html=1;fillColor=#f8cecc;strokeColor=#b85450;fontFamily=Times New Roman;" vertex="1" parent="1">
          <mxGeometry x="379" y="168.5" width="100" height="39" as="geometry" />
        </mxCell>
      </root>
    </mxGraphModel>
  </diagram>
</mxfile>
